<?xml version="1.0" encoding="UTF-8"?>
<!DOCTYPE svg PUBLIC "-//W3C//DTD SVG 1.1//EN" "http://www.w3.org/Graphics/SVG/1.1/DTD/svg11.dtd">
<svg xmlns="http://www.w3.org/2000/svg" version="1.1" width="512px" height="512px" style="shape-rendering:geometricPrecision; text-rendering:geometricPrecision; image-rendering:optimizeQuality; fill-rule:evenodd; clip-rule:evenodd" xmlns:xlink="http://www.w3.org/1999/xlink">
<rect x="0" y="0" width="512" height="512" fill="#ffffff"/>
<g><path fill="#ffffff" stroke="#ffffff" stroke-width="0.5" d="M 0,0 c 170.67,0 341.33,0 512,0 c 0,170.67 0,341.33 0,512 c -170.67,0 -341.33,0 -512,0 c 0,-170.67 0,-341.33 0,-512 Z M 9.99,208 c 0.01,14.51 0,29.02 -0.02,43.53 c 0,1.01 0.49,1.45 1.47,1.33 c 34.53,-14.79 69.09,-29.52 103.66,-44.22 c 0.72,-0.51 1.08,-1.22 1.07,-2.12 c 0.02,-9.36 0.01,-18.72 -0.05,-28.08 c -0.02,-0.48 -0.23,-0.8 -0.64,-0.98 c -34.82,9.6 -69.7,18.96 -104.65,28.06 c -1.03,0.32 -0.76,1.66 -0.84,2.48 Z M 423.12,236 c -0.1,9.27 0.95,18.41 3.15,27.41 c 8.74,32.73 41.51,38.13 70.23,29.47 c 2.15,-0.73 4.22,-1.61 6.22,-2.63 c 0.29,-6.58 0.39,-13.17 0.28,-19.77 c 0.07,-0.74 -0.14,-1.36 -0.62,-1.86 c -5.04,1.96 -10.22,3.38 -15.55,4.28 c -28.14,3.96 -37.32,-7.03 -36.85,-34.4 c -0.63,-28.99 8.13,-38.55 37.54,-35.32 c 4.69,0.62 9.31,1.52 13.86,2.71 c 0.48,-0.32 0.7,-0.77 0.66,-1.36 c -0.03,-6.02 -0.04,-12.03 -0.03,-18.05 c 0.05,-0.86 -0.25,-1.57 -0.89,-2.13 c -10.57,-3.77 -21.44,-5.17 -32.62,-4.2 c -32.71,2.63 -45.13,25.31 -45.38,55.85 Z M 230.03,293 c -0.09,1.11 0.42,1.68 1.52,1.69 c 19.66,-1.03 46.43,2.4 64.99,-2.78 c 23.12,-6.41 28.69,-40.22 9.42,-53.52 c -2.2,-1.19 -4.46,-2.23 -6.77,-3.11 c -0.12,-0.48 0.04,-0.86 0.46,-1.13 c 17.07,-8.25 18.07,-33.65 3.82,-45.06 c -5.72,-3.95 -12.04,-6.28 -18.97,-7 c -17.34,-0.31 -34.68,-0.42 -52.02,-0.33 c -0.96,-0.14 -1.73,0.15 -2.33,0.86 c -0.08,36.79 -0.12,73.59 -0.12,110.38 Z M 317.82,294.06 c 1.28,1.3 20.48,0.26 23.68,0.62 c 1.86,0.37 3,-0.34 3.42,-2.15 c 1.86,-6.15 3.66,-12.31 5.4,-18.49 c 0.62,-1.84 1.91,-1.02 3.24,-1.84 c 0.6,0.73 1.27,0.81 2,0.27 c 10.63,0.13 21.25,0.13 31.88,0 c 0.73,0.54 1.4,0.46 2,-0.27 c 1.08,0.75 2,-0.01 2.54,1.3 c 2.07,6.67 4.07,13.36 6.02,20.08 c 0.14,0.44 0.42,0.75 0.86,0.93 c 8.52,0.15 17.05,0.21 25.58,0.19 c 2.33,0.28 1.94,-1.7 1.32,-3.15 c -12.85,-36.44 -25.7,-72.87 -38.55,-109.28 c -3.31,-1.54 -23.65,-0.51 -28.73,-0.53 c -0.95,-0.07 -1.71,0.26 -2.28,0.98 c -12.62,36.29 -25.23,72.58 -37.85,108.86 c -0.28,0.8 -0.46,1.63 -0.53,2.48 Z M 357.21,250.79 c 4.47,-15.04 8.8,-30.13 13,-45.26 c 0.27,-1.21 0.73,-2.34 1.36,-3.37 c 0.6,0.3 0.94,0.8 1.02,1.5 c 4.16,15.65 8.48,31.24 12.97,46.79 c -0.52,0.61 -1.2,0.86 -2.03,0.75 c -5.57,-0.24 -22.05,0.49 -26.32,-0.41 Z M 254.67,225 c -0.01,-6.86 0,-13.71 0.02,-20.57 c 0.04,-0.62 0.35,-1.04 0.92,-1.28 c 10.22,-0.17 32.35,-4.21 33.22,10.35 c 2.08,18.73 -20.39,14.16 -32.27,14.18 c -1.54,-0.17 -2.17,-1.07 -1.89,-2.68 Z M 124.2,292 c -0.41,1.95 0.37,2.89 2.31,2.8 c 6.95,0 38.23,1.47 42.45,-0.43 c 0.76,-1.22 1.4,-2.51 1.92,-3.87 c 4.73,-11.67 9.42,-23.34 14.09,-35.02 c 0.22,-1.7 -2.15,-2.54 -3.1,-3.64 c -18.77,-15 -37.61,-29.91 -56.5,-44.73 c -0.87,0.04 -1.26,0.51 -1.2,1.4 c 0.03,27.83 0.04,55.66 0.03,83.49 Z M 9.99,312 c -0.11,0.92 0.1,1.72 0.64,2.41 c 34.92,-21.17 69.85,-42.33 104.78,-63.47 c 0.59,-0.69 0.86,-1.5 0.81,-2.42 c -0.04,-10.03 -0.06,-20.05 -0.06,-30.08 c -0.09,-0.93 -0.58,-1.27 -1.47,-1.03 c -34.74,14.84 -69.46,29.7 -104.18,44.6 c -0.44,0.76 -0.62,1.59 -0.54,2.48 c 0.02,15.84 0.03,31.67 0.02,47.51 Z M 254.67,271 c 0,-7.51 0,-15.02 -0.01,-22.53 c -0.03,-0.93 0.34,-1.62 1.12,-2.07 c 6.9,-0.05 13.81,-0.06 20.72,-0.04 c 13.22,-0.56 17.46,8.14 14.37,20.02 c -3.01,11.72 -25.6,6.23 -34.37,7.56 c -1.86,0.19 -1.89,-1.61 -1.83,-2.94 Z M 9.99,332 c 0.02,1.18 -0.35,3.18 1.47,3.12 c 20.69,-0.02 41.37,-0.02 62.06,0 c 0.88,0.05 1.74,-0.07 2.57,-0.37 c 13.43,-12.63 26.73,-25.4 39.88,-38.3 c 0.28,-11.94 0.27,-23.89 -0.03,-35.83 c -0.27,-0.36 -0.61,-0.42 -1,-0.19 c -33.6,20.45 -67.22,40.9 -100.83,61.34 c -0.89,0.99 -4.15,1.26 -4.04,2.74 c -0.08,2.5 -0.11,4.99 -0.08,7.49 Z M 88.05,334.95 c 22.78,0.22 45.56,0.21 68.33,-0.03 c 0.44,-0.36 0.63,-0.84 0.58,-1.41 c -0.01,-9.97 -0.03,-19.94 -0.08,-29.91 c -0.62,-0.69 -1.4,-0.97 -2.36,-0.82 c -11.01,-0.06 -22.02,0.02 -33.02,0.22 c -3.36,2.4 -30.38,28.37 -33.45,31.95 Z M 229.06,319 c -0.26,4.24 0.69,8.19 2.83,11.83 c 3.91,5.46 12.8,6.75 18.36,3.04 c 0.32,-1.11 1,-4.74 0.07,-5.53 c -4.06,0.9 -11.7,2.58 -13.24,-2.94 c -1.22,-6.02 -2.12,-15.02 6.42,-15.2 c 2.26,0.26 4.51,0.45 6.76,0.57 c 0.18,-1.81 0.15,-3.62 -0.07,-5.42 c -11.2,-4.01 -21.37,0.96 -21.13,13.65 Z M 342.78,321 c -1.27,22.13 34.61,21.05 25.89,-9.33 c -4.18,-12.46 -28.31,-10.9 -25.89,9.33 Z M 481.07,320 c -0.27,12.72 9.78,19.85 21.41,13.97 c 0.74,-0.85 0.98,-5.15 -0.14,-5.71 c -12.61,3.79 -15.36,-2.29 -13.38,-13.7 c 1.09,-3.01 3.27,-4.47 6.54,-4.36 c 2.29,0.24 4.58,0.46 6.86,0.66 c 1.09,-0.75 0.54,-3.95 0.35,-5.1 c -1.13,-0.67 -2.35,-1.13 -3.67,-1.38 c -11.5,-1.93 -18.21,4.09 -17.97,15.62 Z M 256.91,307 c -0.06,9.13 0.01,18.26 0.19,27.38 c 0.34,0.47 0.8,0.68 1.38,0.65 c 1.51,-0.29 4.22,0.64 5.29,-0.73 c 0.12,-3.24 0.22,-6.48 0.29,-9.73 c 1.02,-1.34 3.64,-1.09 4.6,0.22 c 1.5,3.44 3.18,6.77 5.05,9.98 c 0.96,0.07 8.1,1.22 7.05,-1.1 c -1.91,-3.43 -3.8,-6.86 -5.68,-10.3 c -0.13,-0.55 0.01,-1.02 0.43,-1.4 c 2.47,-1.48 3.79,-3.66 3.97,-6.55 c 0.41,-13.23 -11.61,-10.75 -21.06,-10.76 c -1.22,0.29 -1.73,1.07 -1.51,2.34 Z M 286.29,305.3 c 0.02,9.64 0.05,19.29 0.09,28.94 c 0.54,0.63 1.24,0.89 2.1,0.78 c 5.97,0.03 11.95,-0.01 17.91,-0.13 c 0.51,-0.3 0.78,-0.75 0.81,-1.34 c -0.09,-1.4 0.76,-3.57 -0.81,-4.41 c -3.96,-0.05 -7.92,-0.1 -11.89,-0.14 c -0.86,-0.15 -1.27,-0.66 -1.24,-1.54 c 0.29,-1.29 -0.52,-4.26 0.47,-5.17 c 3.26,-0.13 6.53,-0.2 9.79,-0.19 c 1.97,-0.17 1.38,-3.97 0.8,-4.98 c -3.46,-0.25 -6.93,-0.46 -10.4,-0.64 c -0.86,-0.51 -1.45,-5.62 0.55,-5.61 c 3.93,-0.02 7.84,-0.09 11.76,-0.22 c 0.4,-0.28 0.59,-0.68 0.56,-1.18 c -0.2,-1.96 0.91,-5.1 -2.26,-4.82 c -4.12,0.36 -15.02,-0.68 -18.24,0.65 Z M 313.06,332 c -0.18,1.04 0.03,1.98 0.63,2.8 c 18.06,1.69 27.82,-1.02 23.83,-22.08 c -2.75,-10.17 -14.02,-7.74 -22.05,-8.06 c -1.5,-0.23 -2.31,0.38 -2.43,1.83 c 0.03,8.51 0.03,17.01 0.02,25.51 Z M 374.82,307 c -0.07,9.14 0.01,18.28 0.23,27.4 c 1.01,0.99 4.79,1.01 5.72,-0.1 c 0.15,-4.94 0.22,-9.89 0.2,-14.85 c -0.01,-0.48 0.12,-0.91 0.41,-1.28 c 2.28,5.37 4.51,10.78 6.69,16.22 c 1.37,0.72 2.82,0.87 4.34,0.43 c 0.42,-0.17 0.71,-0.46 0.87,-0.88 c 1.67,-4.28 3.46,-8.51 5.37,-12.68 c 0.16,-1.04 0.42,-2.04 0.78,-3 c 0.4,0.23 0.62,0.59 0.66,1.07 c 0.07,4.97 0.15,9.95 0.24,14.92 c 0.26,0.45 0.65,0.69 1.18,0.71 c 1.29,-0.14 5.54,0.9 5.26,-1.5 c -0.04,-8.97 -0.04,-17.95 0,-26.93 c 0.07,-0.54 -0.08,-1.02 -0.44,-1.43 c -2.14,-0.63 -5.49,-0.78 -7.53,0.17 c -2.38,5.88 -4.77,11.77 -7.18,17.65 c -0.75,1.4 -1.42,1.35 -2.01,-0.16 c -2.3,-5.96 -4.72,-11.85 -7.24,-17.69 c -1.89,-0.29 -8.24,-1.73 -7.55,1.93 Z M 411.18,334 c 0.09,1.92 5,0.76 6.27,0.88 c 2.05,-0.49 1.02,-4.71 3.21,-5.69 c 1.73,0.04 9.26,-0.65 10.21,0.49 c 0.6,1.69 1.25,3.35 1.95,4.97 c 1.52,0.3 8.37,1.64 6.9,-1.7 c -1.91,-5.18 -7.58,-24.88 -10.28,-27.89 c -2.08,-0.44 -6.73,-1.03 -8.36,0.55 c -3.28,9.47 -6.58,18.93 -9.9,28.39 Z M 439.33,309 c -0.34,3.95 7.15,0.28 8.33,2.74 c -0.02,7.28 -0.01,14.55 0.02,21.83 c 0.03,0.63 0.32,1.08 0.89,1.35 c 1.33,-0.12 6.53,1.06 6.12,-1.47 c -0.1,-7.32 -0.03,-14.63 0.22,-21.92 c 1.47,-1.91 8.12,0.93 7.95,-2.05 c -0.23,-2.01 0.87,-5.09 -2.33,-4.83 c -6.37,0.02 -12.74,0.02 -19.1,0.01 c -2.41,-0.04 -1.81,2.76 -2.1,4.34 Z M 468.04,306.01 c -0.03,9.44 0.03,18.87 0.19,28.29 c 0.29,0.46 0.71,0.69 1.27,0.69 c 1.38,-0.27 5.75,1.01 5.58,-1.46 c 0.04,-9.33 0.01,-18.66 -0.11,-27.99 c -0.57,-1.36 -7.13,-1.46 -6.93,0.47 Z M 263.93,316 c -0.02,-1.5 0,-3 0.06,-4.5 c -0.01,-2.24 6.63,-1.37 7.77,0.23 c 2.95,8.79 -8.61,8.48 -7.83,4.27 Z M 349.98,319 c -0.73,-12.54 13.83,-11.29 12.27,-0.7 c 0.73,0.8 0.73,1.6 0,2.39 c 1.49,12.51 -14.02,12.28 -12.27,-1.69 Z M 320.08,313 c -0.12,-0.73 0.07,-1.36 0.56,-1.89 c 9.54,-1.65 11.1,2.59 10.33,11.4 c 0.08,6.03 -4.45,6.87 -9.46,6.4 c -0.54,0.03 -0.97,-0.18 -1.27,-0.61 c -0.15,-5.1 -0.21,-10.2 -0.16,-15.3 Z M 422.02,322 c 0.98,-3.22 1.88,-6.47 2.69,-9.73 c 0.53,-1.61 1.05,-1.61 1.58,0 c 0.9,3.39 1.77,6.77 2.61,10.16 c -0.51,1.55 -4.21,0.57 -5.47,0.83 c -0.83,-0.04 -1.3,-0.46 -1.41,-1.26 Z"/></g>
<g><path fill="#c81130" stroke="#c81130" stroke-width="0.5" d="M 9.99,208 c 0.08,-0.82 -0.19,-2.16 0.84,-2.48 c 34.95,-9.1 69.83,-18.46 104.65,-28.06 c 0.41,0.18 0.62,0.5 0.64,0.98 c 0.06,9.36 0.07,18.72 0.05,28.08 c 0.01,0.9 -0.35,1.61 -1.07,2.12 c -34.57,14.7 -69.13,29.43 -103.66,44.22 c -0.98,0.12 -1.47,-0.32 -1.47,-1.33 c 0.02,-14.51 0.03,-29.02 0.02,-43.53 Z M 423.12,236 c 0.25,-30.54 12.67,-53.22 45.38,-55.85 c 11.18,-0.97 22.05,0.43 32.62,4.2 c 0.64,0.56 0.94,1.27 0.89,2.13 c -0.01,6.02 0,12.03 0.03,18.05 c 0.04,0.59 -0.18,1.04 -0.66,1.36 c -4.55,-1.19 -9.17,-2.09 -13.86,-2.71 c -29.41,-3.23 -38.17,6.33 -37.54,35.32 c -0.47,27.37 8.71,38.36 36.85,34.4 c 5.33,-0.9 10.51,-2.32 15.55,-4.28 c 0.48,0.5 0.69,1.12 0.62,1.86 c 0.11,6.6 0.01,13.19 -0.28,19.77 c -2,1.02 -4.07,1.9 -6.22,2.63 c -28.72,8.66 -61.49,3.26 -70.23,-29.47 c -2.2,-9 -3.25,-18.14 -3.15,-27.41 Z M 230.03,293 c 0,-36.79 0.04,-73.59 0.12,-110.38 c 0.6,-0.71 1.37,-1 2.33,-0.86 c 17.34,-0.09 34.68,0.02 52.02,0.33 c 6.93,0.72 13.25,3.05 18.97,7 c 14.25,11.41 13.25,36.81 -3.82,45.06 c -0.42,0.27 -0.58,0.65 -0.46,1.13 c 2.31,0.88 4.57,1.92 6.77,3.11 c 19.27,13.3 13.7,47.11 -9.42,53.52 c -18.56,5.18 -45.33,1.75 -64.99,2.78 c -1.1,-0.01 -1.61,-0.58 -1.52,-1.69 Z M 317.82,294.06 c 0.07,-0.85 0.25,-1.68 0.53,-2.48 c 12.62,-36.28 25.23,-72.57 37.85,-108.86 c 0.57,-0.72 1.33,-1.05 2.28,-0.98 c 5.08,0.02 25.42,-1.01 28.73,0.53 c 12.85,36.41 25.7,72.84 38.55,109.28 c 0.62,1.45 1.01,3.43 -1.32,3.15 c -8.53,0.02 -17.06,-0.04 -25.58,-0.19 c -0.44,-0.18 -0.72,-0.49 -0.86,-0.93 c -1.95,-6.72 -3.95,-13.41 -6.02,-20.08 c -0.54,-1.31 -1.46,-0.55 -2.54,-1.3 c -0.6,0.73 -1.27,0.81 -2,0.27 c -10.63,0.13 -21.25,0.13 -31.88,0 c -0.73,0.54 -1.4,0.46 -2,-0.27 c -1.33,0.82 -2.62,0 -3.24,1.84 c -1.74,6.18 -3.54,12.34 -5.4,18.49 c -0.42,1.81 -1.56,2.52 -3.42,2.15 c -3.2,-0.36 -22.4,0.68 -23.68,-0.62 Z M 357.21,250.79 c 4.27,0.9 20.75,0.17 26.32,0.41 c 0.83,0.11 1.51,-0.14 2.03,-0.75 c -4.49,-15.55 -8.81,-31.14 -12.97,-46.79 c -0.08,-0.7 -0.42,-1.2 -1.02,-1.5 c -0.63,1.03 -1.09,2.16 -1.36,3.37 c -4.2,15.13 -8.53,30.22 -13,45.26 Z M 254.67,225 c -0.28,1.61 0.35,2.51 1.89,2.68 c 11.88,-0.02 34.35,4.55 32.27,-14.18 c -0.87,-14.56 -23,-10.52 -33.22,-10.35 c -0.57,0.24 -0.88,0.66 -0.92,1.28 c -0.02,6.86 -0.03,13.71 -0.02,20.57 Z M 124.2,292 c 0.01,-27.83 0,-55.66 -0.03,-83.49 c -0.06,-0.89 0.33,-1.36 1.2,-1.4 c 18.89,14.82 37.73,29.73 56.5,44.73 c 0.95,1.1 3.32,1.94 3.1,3.64 c -4.67,11.68 -9.36,23.35 -14.09,35.02 c -0.52,1.36 -1.16,2.65 -1.92,3.87 c -4.22,1.9 -35.5,0.43 -42.45,0.43 c -1.94,0.09 -2.72,-0.85 -2.31,-2.8 Z M 9.99,312 c 0.01,-15.84 0,-31.67 -0.02,-47.51 c -0.08,-0.89 0.1,-1.72 0.54,-2.48 c 34.72,-14.9 69.44,-29.76 104.18,-44.6 c 0.89,-0.24 1.38,0.1 1.47,1.03 c 0,10.03 0.02,20.05 0.06,30.08 c 0.05,0.92 -0.22,1.73 -0.81,2.42 c -34.93,21.14 -69.86,42.3 -104.78,63.47 c -0.54,-0.69 -0.75,-1.49 -0.64,-2.41 Z M 254.67,271 c -0.06,1.33 -0.03,3.13 1.83,2.94 c 8.77,-1.33 31.36,4.16 34.37,-7.56 c 3.09,-11.88 -1.15,-20.58 -14.37,-20.02 c -6.91,-0.02 -13.82,-0.01 -20.72,0.04 c -0.78,0.45 -1.15,1.14 -1.12,2.07 c 0.01,7.51 0.01,15.02 0.01,22.53 Z M 9.99,332 c -0.03,-2.5 0,-4.99 0.08,-7.49 c -0.11,-1.48 3.15,-1.75 4.04,-2.74 c 33.61,-20.44 67.23,-40.89 100.83,-61.34 c 0.39,-0.23 0.73,-0.17 1,0.19 c 0.3,11.94 0.31,23.89 0.03,35.83 c -13.15,12.9 -26.45,25.67 -39.88,38.3 c -0.83,0.3 -1.69,0.42 -2.57,0.37 c -20.69,-0.02 -41.37,-0.02 -62.06,0 c -1.82,0.06 -1.45,-1.94 -1.47,-3.12 Z M 88.05,334.95 c 3.07,-3.58 30.09,-29.55 33.45,-31.95 c 11,-0.2 22.01,-0.28 33.02,-0.22 c 0.96,-0.15 1.74,0.13 2.36,0.82 c 0.05,9.97 0.07,19.94 0.08,29.91 c 0.05,0.57 -0.14,1.05 -0.58,1.41 c -22.77,0.24 -45.55,0.25 -68.33,0.03 Z M 229.06,319 c -0.24,-12.69 9.93,-17.66 21.13,-13.65 c 0.22,1.8 0.25,3.61 0.07,5.42 c -2.25,-0.12 -4.5,-0.31 -6.76,-0.57 c -8.54,0.18 -7.64,9.18 -6.42,15.2 c 1.54,5.52 9.18,3.84 13.24,2.94 c 0.93,0.79 0.25,4.42 -0.07,5.53 c -5.56,3.71 -14.45,2.42 -18.36,-3.04 c -2.14,-3.64 -3.09,-7.59 -2.83,-11.83 Z M 342.78,321 c -2.42,-20.23 21.71,-21.79 25.89,-9.33 c 8.72,30.38 -27.16,31.46 -25.89,9.33 Z M 481.07,320 c -0.24,-11.53 6.47,-17.55 17.97,-15.62 c 1.32,0.25 2.54,0.71 3.67,1.38 c 0.19,1.15 0.74,4.35 -0.35,5.1 c -2.28,-0.2 -4.57,-0.42 -6.86,-0.66 c -3.27,-0.11 -5.45,1.35 -6.54,4.36 c -1.98,11.41 0.77,17.49 13.38,13.7 c 1.12,0.56 0.88,4.86 0.14,5.71 c -11.63,5.88 -21.68,-1.25 -21.41,-13.97 Z M 256.91,307 c -0.22,-1.27 0.29,-2.05 1.51,-2.34 c 9.45,0.01 21.47,-2.47 21.06,10.76 c -0.18,2.89 -1.5,5.07 -3.97,6.55 c -0.42,0.38 -0.56,0.85 -0.43,1.4 c 1.88,3.44 3.77,6.87 5.68,10.3 c 1.05,2.32 -6.09,1.17 -7.05,1.1 c -1.87,-3.21 -3.55,-6.54 -5.05,-9.98 c -0.96,-1.31 -3.58,-1.56 -4.6,-0.22 c -0.07,3.25 -0.17,6.49 -0.29,9.73 c -1.07,1.37 -3.78,0.44 -5.29,0.73 c -0.58,0.03 -1.04,-0.18 -1.38,-0.65 c -0.18,-9.12 -0.25,-18.25 -0.19,-27.38 Z M 286.29,305.3 c 3.22,-1.33 14.12,-0.29 18.24,-0.65 c 3.17,-0.28 2.06,2.86 2.26,4.82 c 0.03,0.5 -0.16,0.9 -0.56,1.18 c -3.92,0.13 -7.83,0.2 -11.76,0.22 c -2,-0.01 -1.41,5.1 -0.55,5.61 c 3.47,0.18 6.94,0.39 10.4,0.64 c 0.58,1.01 1.17,4.81 -0.8,4.98 c -3.26,-0.01 -6.53,0.06 -9.79,0.19 c -0.99,0.91 -0.18,3.88 -0.47,5.17 c -0.03,0.88 0.38,1.39 1.24,1.54 c 3.97,0.04 7.93,0.09 11.89,0.14 c 1.57,0.84 0.72,3.01 0.81,4.41 c -0.03,0.59 -0.3,1.04 -0.81,1.34 c -5.96,0.12 -11.94,0.16 -17.91,0.13 c -0.86,0.11 -1.56,-0.15 -2.1,-0.78 c -0.04,-9.65 -0.07,-19.3 -0.09,-28.94 Z M 313.06,332 c 0.01,-8.5 0.01,-17 -0.02,-25.51 c 0.12,-1.45 0.93,-2.06 2.43,-1.83 c 8.03,0.32 19.3,-2.11 22.05,8.06 c 3.99,21.06 -5.77,23.77 -23.83,22.08 c -0.6,-0.82 -0.81,-1.76 -0.63,-2.8 Z M 374.82,307 c -0.69,-3.66 5.66,-2.22 7.55,-1.93 c 2.52,5.84 4.94,11.73 7.24,17.69 c 0.59,1.51 1.26,1.56 2.01,0.16 c 2.41,-5.88 4.8,-11.77 7.18,-17.65 c 2.04,-0.95 5.39,-0.8 7.53,-0.17 c 0.36,0.41 0.51,0.89 0.44,1.43 c -0.04,8.98 -0.04,17.96 0,26.93 c 0.28,2.4 -3.97,1.36 -5.26,1.5 c -0.53,-0.02 -0.92,-0.26 -1.18,-0.71 c -0.09,-4.97 -0.17,-9.95 -0.24,-14.92 c -0.04,-0.48 -0.26,-0.84 -0.66,-1.07 c -0.36,0.96 -0.62,1.96 -0.78,3 c -1.91,4.17 -3.7,8.4 -5.37,12.68 c -0.16,0.42 -0.45,0.71 -0.87,0.88 c -1.52,0.44 -2.97,0.29 -4.34,-0.43 c -2.18,-5.44 -4.41,-10.85 -6.69,-16.22 c -0.29,0.37 -0.42,0.8 -0.41,1.28 c 0.02,4.96 -0.05,9.91 -0.2,14.85 c -0.93,1.11 -4.71,1.09 -5.72,0.1 c -0.22,-9.12 -0.3,-18.26 -0.23,-27.4 Z M 411.18,334 c 3.32,-9.46 6.62,-18.92 9.9,-28.39 c 1.63,-1.58 6.28,-0.99 8.36,-0.55 c 2.7,3.01 8.37,22.71 10.28,27.89 c 1.47,3.34 -5.38,2 -6.9,1.7 c -0.7,-1.62 -1.35,-3.28 -1.95,-4.97 c -0.95,-1.14 -8.48,-0.45 -10.21,-0.49 c -2.19,0.98 -1.16,5.2 -3.21,5.69 c -1.27,-0.12 -6.18,1.04 -6.27,-0.88 Z M 439.33,309 c 0.29,-1.58 -0.31,-4.38 2.1,-4.34 c 6.36,0.01 12.73,0.01 19.1,-0.01 c 3.2,-0.26 2.1,2.82 2.33,4.83 c 0.17,2.98 -6.48,0.14 -7.95,2.05 c -0.25,7.29 -0.32,14.6 -0.22,21.92 c 0.41,2.53 -4.79,1.35 -6.12,1.47 c -0.57,-0.27 -0.86,-0.72 -0.89,-1.35 c -0.03,-7.28 -0.04,-14.55 -0.02,-21.83 c -1.18,-2.46 -8.67,1.21 -8.33,-2.74 Z M 468.04,306.01 c -0.2,-1.93 6.36,-1.83 6.93,-0.47 c 0.12,9.33 0.15,18.66 0.11,27.99 c 0.17,2.47 -4.2,1.19 -5.58,1.46 c -0.56,0 -0.98,-0.23 -1.27,-0.69 c -0.16,-9.42 -0.22,-18.85 -0.19,-28.29 Z M 263.93,316 c -0.78,4.21 10.78,4.52 7.83,-4.27 c -1.14,-1.6 -7.78,-2.47 -7.77,-0.23 c -0.06,1.5 -0.08,3 -0.06,4.5 Z M 349.98,319 c -1.75,13.97 13.76,14.2 12.27,1.69 c 0.73,-0.79 0.73,-1.59 0,-2.39 c 1.56,-10.59 -13,-11.84 -12.27,0.7 Z M 320.08,313 c -0.05,5.1 0.01,10.2 0.16,15.3 c 0.3,0.43 0.73,0.64 1.27,0.61 c 5.01,0.47 9.54,-0.37 9.46,-6.4 c 0.77,-8.81 -0.79,-13.05 -10.33,-11.4 c -0.49,0.53 -0.68,1.16 -0.56,1.89 Z M 422.02,322 c 0.11,0.8 0.58,1.22 1.41,1.26 c 1.26,-0.26 4.96,0.72 5.47,-0.83 c -0.84,-3.39 -1.71,-6.77 -2.61,-10.16 c -0.53,-1.61 -1.05,-1.61 -1.58,0 c -0.81,3.26 -1.71,6.51 -2.69,9.73 Z"/></g>
</svg>
